<?xml version="1.0" standalone="no"?><!DOCTYPE svg PUBLIC "-//W3C//DTD SVG 1.1//EN" "http://www.w3.org/Graphics/SVG/1.1/DTD/svg11.dtd"><svg t="1717407878950" class="icon" viewBox="0 0 1024 1024" version="1.1" xmlns="http://www.w3.org/2000/svg" p-id="12637" width="128" height="128" xmlns:xlink="http://www.w3.org/1999/xlink"><path d="M800 512 576 512 576 288C576 270.08 561.92 256 544 256 526.08 256 512 270.08 512 288L512 512 288 512C270.08 512 256 526.08 256 544 256 561.92 270.08 576 288 576L512 576l0 224C512 817.92 526.08 832 544 832 561.92 832 576 817.92 576 800L576 576l224 0C817.92 576 832 561.92 832 544 832 526.08 817.92 512 800 512zM544 64C279.04 64 64 279.04 64 544 64 808.96 279.04 1024 544 1024S1024 808.96 1024 544C1024 279.04 808.96 64 544 64zM544 960C314.24 960 128 773.76 128 544 128 314.24 314.24 128 544 128 773.76 128 960 314.24 960 544 960 773.76 773.76 960 544 960z" p-id="12638" fill="#FFDB53"></path></svg>