<?xml version="1.0" standalone="no"?><!DOCTYPE svg PUBLIC "-//W3C//DTD SVG 1.1//EN" "http://www.w3.org/Graphics/SVG/1.1/DTD/svg11.dtd"><svg t="1717580287136" class="icon" viewBox="0 0 1024 1024" version="1.1" xmlns="http://www.w3.org/2000/svg" p-id="1606" xmlns:xlink="http://www.w3.org/1999/xlink" width="128" height="128"><path d="M981.8112 271.291733a19.8656 19.8656 0 0 0-14.199467-6.007466c-13.141333 0-28.433067 11.4688-38.263466 21.879466L564.6336 640.9216c-13.141333 13.141333-62.327467 92.945067-64.512 96.221867l-8.192 13.141333 13.1072-8.192c3.413333-2.184533 84.206933-51.950933 97.860267-64.512L967.611733 323.242667c15.872-15.872 28.433067-37.717333 14.199467-51.950934zM754.346667 381.201067A53.589333 53.589333 0 1 1 700.791467 327.68a53.6576 53.6576 0 0 1 53.589333 53.589333zM192.853333 568.183467a53.589333 53.589333 0 1 1 53.589334-53.589334 53.6576 53.6576 0 0 1-53.589334 53.589334zM273.066667 381.201067a53.589333 53.589333 0 1 1 53.589333 53.589333 53.6576 53.6576 0 0 1-53.589333-53.589333zM460.219733 327.68a53.589333 53.589333 0 1 1 53.589334 53.589333 53.6576 53.6576 0 0 1-53.589334-53.589333z m0 0" p-id="1607" fill="#a1a1a1"></path><path d="M879.581867 508.040533c-24.610133 159.095467-174.967467 325.870933-381.6448 325.870934a315.323733 315.323733 0 0 1-114.824534-21.333334c-36.078933-14.2336-52.497067-36.625067-55.227733-48.128-1.6384-6.007467-3.413333-12.014933-4.9152-18.602666a179.0976 179.0976 0 0 0-21.879467-54.613334c-19.694933-32.802133-48.128-39.355733-68.266666-39.355733a124.654933 124.654933 0 0 0-23.893334 2.730667 173.124267 173.124267 0 0 1-39.901866 4.9152c-26.794667 0-83.114667-18.056533-84.206934-65.604267C77.482667 350.037333 288.529067 217.7024 490.2912 194.7648a401.578667 401.578667 0 0 1 45.3632-2.184533c56.866133 0 119.1936 10.922667 162.952533 27.886933 9.8304 3.822933 15.325867 6.5536 42.0864 19.694933a252.586667 252.586667 0 0 1 67.242667 50.858667l32.256-51.4048a303.581867 303.581867 0 0 0-71.68-50.858667c-26.794667-13.141333-33.8944-16.418133-46.4896-21.333333-50.858667-19.694933-121.924267-32.256-185.890133-32.256-18.056533 0-36.078933 1.092267-52.497067 2.730667-123.562667 14.2336-235.52 62.8736-316.586667 137.796266-92.842667 84.718933-138.786133 197.358933-135.509333 325.290667 1.092267 36.625067 16.418133 67.242667 43.758933 88.029867 23.893333 18.056533 56.32 27.886933 92.945067 27.886933A227.9424 227.9424 0 0 0 221.866667 710.3488a35.362133 35.362133 0 0 1 10.24-1.092267c12.014933 0 18.056533 10.922667 28.9792 52.497067 1.6384 7.099733 3.822933 14.199467 5.461333 21.333333 9.8304 33.8944 42.0864 62.8736 92.398933 83.114667a386.286933 386.286933 0 0 0 138.3424 25.7024 438.8864 438.8864 0 0 0 166.229334-32.256 443.733333 443.733333 0 0 0 134.519466-85.845333 448.955733 448.955733 0 0 0 94.037334-122.88 419.157333 419.157333 0 0 0 45.397333-144.349867 29.115733 29.115733 0 0 0 0.546133-7.099733v-1.6384c0-2.730667 0.546133-4.9152 0.546134-7.645867z m0 0" p-id="1608" fill="#a1a1a1"></path></svg>